# xmcd CD database file
# Copyright (C) 1996 Ti Kan
#
# Track frame offsets:
# 	150
# 	18570
# 	33795
# 	48802
# 	63835
# 	85685
# 	100082
# 	116825
# 	134937
# 	142960
#
# Disc length: 2060 seconds
#
# Revision: 1
# Processed by: cddbd v1.4b41PL1 Copyright (c) Steve Scherf et al.
# Submitted via: DiscPlay 3.4.1
#
DISCID=80080a0a
DTITLE=Alvin and The Chipmunks - Urban Chipmunk
DYEAR=1900
DGENRE=
TTITLE0=The Devil Went Down To Georgia
TTITLE1=Mammas Don't Let You Babies Grow Up To Be Chipmunks
TTITLE2=The Gambler
TTITLE3=Lunchbox
TTITLE4=Another Somebody Done Somebody Wrong Song
TTITLE5=Boot Scootin' Boogie
TTITLE6=I Love A Rainy Night
TTITLE7=Coward Of The County
TTITLE8=Thank God I'm A Country Boy
TTITLE9=On The Road Again
EXTD=
EXTT0=
EXTT1=
EXTT2=
EXTT3=
EXTT4=
EXTT5=
EXTT6=
EXTT7=
EXTT8=
EXTT9=
PLAYORDER=
